<svg version="1" xmlns="http://www.w3.org/2000/svg" width="533.333" height="533.333" viewBox="0 0 400.000000 400.000000"><path d="M181.2 79.6c-37 6.2-65.9 31.9-78.1 69.4l-2.7 8.3-4.7.3c-5.9.5-9.5 2.3-13.5 6.8-4 4.6-4.4 7.7-4 33.3.3 23.5.3 23.4 7.9 29.4 2.7 2.3 4.6 2.9 9.4 3.1l6 .3 5 10c4.7 9.5 11.7 19.7 16.4 23.9l2.1 1.9-5 5.3c-3.1 3.3-5 6.2-5 7.7 0 1.3 1.7 4.3 3.7 6.8 13.7 16.1 30.5 26.7 52.3 32.7 8.7 2.4 11.1 2.7 28 2.7 18.9 0 22.6-.5 36-4.7 16.9-5.3 33.3-16.1 44.1-29.1 6.3-7.6 6.4-9.8.4-15.7-2.5-2.4-4.5-4.8-4.5-5.3s2.2-3.3 4.8-6.2c4.9-5.6 12.9-18.4 15.2-24.5 1.8-4.9 1.8-4.9 8.2-5.4 9.2-.7 15.6-5.5 17.8-13.4 1.3-4.8 1.3-41.6 0-46.4-1.1-3.7-5.7-9.3-9.3-11.3-1.7-.9-1.9-2.8-1.9-24.5 0-21.3.2-23.6 1.8-24.5 10.4-6 13.1-17.2 6.3-26-7.8-9.9-23.8-7.1-28.4 4.9-2.8 7.4-.2 14.8 7 19.7l4 2.7v22.6c0 12.4-.3 22.6-.7 22.6-.4 0-1.2-1.9-1.8-4.3-2.2-8.3-8.4-21.4-14.6-30.7-13.5-20.6-33.8-35-57.9-41-11.4-2.8-32.1-3.5-44.3-1.4zm32.8 8.8c9.5 1.5 15.2 3.1 15.8 4.5.8 1.7.8 34.8.1 35.6-.3.2-2.7-.2-5.4-1.1-8.3-2.4-9.6-2.6-22.5-3-11.9-.3-16 .2-30.9 3.8-1.3.2-1.5-2.5-1.6-17.5 0-11.1.3-18.1 1-18.6 1.6-1.3 10.5-3.2 17.5-3.8 3.6-.3 6.6-.7 6.8-.8.4-.3 16 .4 19.2.9zm96.5 1.6c2.7 3 2.8 6.6.2 9.6-6.5 7.5-17.7-1.8-11.4-9.5 2.7-3.2 8.3-3.3 11.2-.1zm-57 13.3c10.6 7.5 21.8 20.6 28.1 32.9 2.5 5 7.1 16.7 7.9 20.2.2 1.1.9 3.9 1.4 6.1.5 2.2 1.3 6.2 1.7 9 .3 2.7.8 5.9 1 7 .3 1.1.5 7.3.5 13.7.1 50.1-27.7 83.6-76.1 91.9-5.8 1-29.8 1.3-34 .4-1.4-.3-5.1-1-8.4-1.6-26.6-4.8-49.8-22.8-61.1-47.2-7.9-17-10.4-34.8-8.1-57.7 3.5-36.4 22.4-66.7 50.3-80.9 7-3.5 6.8-3.8 6.6 12.6-.1 8.2-.2 16.4-.3 18.4 0 3.2-.4 3.7-4.2 5.3-14.6 6.3-30.1 20.8-38.1 35.6-14.3 26.4-11.5 57.6 7 78.1 11.8 13.1 31 22.5 52.3 25.7 5.9.9 33 .9 40 0 3-.4 9.5-1.9 14.3-3.3 33.6-9.7 53.8-34.1 53.8-65.1 0-29-17.4-55.9-45.1-69.9-3-1.5-5.7-3.1-6-3.5-.4-.7-.5-31.3-.1-35.8.1-1.3 10.3 3.7 16.6 8.1zm-34 29c30.3 6.6 55.1 29.9 61 57.4 2.2 10.4 1.4 26.1-1.7 34.5-10.3 27.6-40 43.8-79.7 43.6-10.7-.1-16.3-.7-28-3.2-14.1-3.1-30.4-12.4-40.2-22.9-4-4.3-10.6-18.1-12-24.7-2.6-13.4-.2-30.8 6.1-43.2 11.1-21.7 32.6-37.2 58.8-42.2 8.6-1.6 26.7-1.3 35.7.7zm-118 35.7c-.7 1.1-1.9 15.9-2 24.2 0 6.2-.3 7.8-1.5 7.9-1.5.2-7.6.1-9.5 0-.7-.1-1-5.2-1-14.1.1-12.8.3-14.2 2.2-16.1 1.1-1.2 3.6-2.4 5.4-2.8 3.7-.8 7.2-.3 6.4.9zm209 2c1.8 1.8 2 3.6 2.3 16l.4 14-2.6.1c-3.3.1-7.3.1-8.8 0-.9-.1-1.3-2.6-1.3-8.9.1-4.8-.4-12.2-1-16.4-1.1-7.4-1.1-7.7.9-8 3.2-.6 7.8.9 10.1 3.2zm-210.4 38.3c.6 1 .8 2.1.6 2.3-.3.3.1 2.7.8 5.4.7 2.7 1.1 5.1.8 5.3-.7.8-8.7-.2-10.9-1.4-2.8-1.4-4.4-5-4.4-9.8v-3.8h6.1c4.9 0 6.2.4 7 2zm212.6 3c-.5 6.2-3.6 9.4-9.2 10-6.2.6-6.3.4-5-6.7.7-3.5 1.5-6.7 1.8-7.2.3-.6 3.3-1 6.7-1h6.2l-.5 4.9zM138.4 274c10.6 7.2 24.7 12.8 39.3 15.6 9.2 1.7 28.8 2.2 38.6 1 14.5-1.8 33.5-8.7 44-15.9l5.8-4 3.9 3.8c2.2 2.2 4 4.4 4 4.9 0 1.9-12.8 13.5-19.7 17.9-8.6 5.5-14.8 8.4-24.6 11.3-26.7 8-58.1 4.4-80.9-9.2-7.7-4.7-22.8-17.7-22.8-19.8 0-.9 6.9-8.6 7.8-8.6.2 0 2.3 1.3 4.6 3z"/><path d="M175.1 141.6c-16 5.4-29.1 15.5-38.2 29.4-7.1 10.8-6.8 11.7 5.1 15.7 11.8 4 13.3 4 15.1.5 2-4 6.9-10.3 10.9-13.9 4.1-3.8 15.1-9.8 19.8-10.8 5-1 5.3-2.9 1.8-13.5-3.6-11.1-3.7-11.2-14.5-7.4zm8.5 8.9c1.9 5.6 1.8 6.4-1.3 7.6-12.6 4.7-22.6 13-29.9 24.7-.4.7-12.4-3.3-12.4-4 0-1.8 5.5-9.3 10.4-14.3 5.7-5.6 13.8-11.2 20.8-14.3 2.4-1 5.4-2.3 6.8-3 3.5-1.5 4-1.2 5.6 3.3zM122.9 196.8c-1.3.2-1.6 1.4-1.4 5.6.1 5.5 2.3 10.2 5.1 11.3.8.3 1.4 1.9 1.4 4.2 0 3.5.1 3.6 3.5 3.7 3 0 3.5-.3 3.6-2.3.3-4.2.4-4.5 2.6-6 2-1.3 2.2-1.2 2.8 1.6 1.4 6.6 11.7 8.9 16.2 3.7 2.1-2.5 2.3-2.5 3.3-.7 1.4 2.8 4.3 3.5 14.3 3.6 9.5 0 8.8.6 8.9-6.8.1-1.7.5-3.8 1.1-4.4 1.1-1.6 5.4-.7 8.1 1.6 1 .9 2 1.5 2.2 1.3.9-.5 6.7-.2 6.1.4-.3.4-3 .6-6 .5l-5.3-.1v3.3c0 1.7.4 3.5.8 3.8.5.3 3.8.5 7.3.4 4.7-.2 7.1-.7 8.5-2 2-1.8 2-1.7 2 3.2v5l3.5.1c3.2.1 3.5-.1 3.5-2.8 0-2.7.3-3 2.9-3 1.7 0 4.2-1 5.7-2.4l2.8-2.3 3.4 2.3c3.6 2.5 6.2 2.9 9.7 1.5 1.2-.5 2.5-.4 3.3.2 1.7 1.3 3.3-.8 2.4-3.2-.3-1.1.3-.8 2 .7 3.6 3.3 9.6 4 12.7 1.4 2.5-1.9 2.5-1.9 5.8.1 4 2.3 9.1 1.7 11.8-1.3 1.8-2 1.8-2.1-.4-4.3l-2.1-2.4 2-2.6c2.6-3.2 1.4-6.4-2.8-7.3-1.5-.3-3.1-.7-3.7-.9-.5-.1-2.7.7-4.7 1.8-3.6 1.9-3.9 2-5.7.3-2.7-2.4-7.6-2.3-11.1.2-3.5 2.6-3.8 2.7-3.6.6.1-1.3-1-1.7-4.7-1.9-2.7-.2-5.1-.5-5.4-.9-.7-.7-5.6 1.8-7.3 3.8-1.1 1.4-1.5 1.3-3.9-1-2.3-2.3-3.2-2.5-7.5-2.1-6.9.6-8.6 0-8.6-3.2 0-2.5-.2-2.6-5.7-2.4-3.2.1-6.6.2-7.6.2-1 .1-3 1.3-4.5 2.8-2.6 2.6-3.1 2.8-11.9 2.6l-9.3-.1-.1 4.6c-.2 7-.3 7.5-1.6 7.9-1.2.4-1.9-5.4-1.4-10.9.2-1.2-.6-1.6-3.6-1.5-2.2.1-3.9.7-3.9 1.4-.1.7-.2 1.5-.3 1.8 0 .3-1.1-.3-2.3-1.5-1.2-1.1-2.7-2-3.2-2.1-2.9-.3-6.3.4-8.3 1.7-2.5 1.6-2.7 1.2-2.3-3.5.2-2.9-1.2-3.9-4.9-3.3-2.5.3-2.9.8-2.8 3.5 0 5.3-.2 6.5-1.6 7-2.7 1-4-1-3.9-5.6.2-3.9-.1-4.5-2-4.9-1.3-.2-3-.2-3.9 0zm85.1 9.3v3l-2.7-1.8c-1.6-1.1-4.3-1.8-6-1.8-1.8.1-3.3-.2-3.3-.6 0-.3 2.5-.6 5.5-.5 3 0 5.5-.2 5.5-.7 0-.4.2-.7.5-.7s.5 1.4.5 3.1zm-56.2 5.5c.2 1.2-.4 2.4-1.2 2.7-1.9.7-4-1.8-3.2-3.9.8-2.2 4-1.3 4.4 1.2zm68-.2c.2 1-.1 2.3-.7 2.9-1.5 1.5-4.6-1.6-3.7-3.8.8-2.1 4-1.5 4.4.9zm18 0c.5 2.6-1.3 4.2-3.2 2.7-1.2-1-1.3-2.1-.7-4.9.3-1.2 3.6.7 3.9 2.2zm19 .2c.2 1.2-.4 2.4-1.2 2.7-1.9.7-4-1.8-3.2-3.9.8-2.2 4-1.3 4.4 1.2zm4.2.6c0 1.6-.3 1.9-1.1 1.1-.6-.6-.8-1.6-.5-2.2 1.1-1.7 1.6-1.3 1.6 1.1z"/></svg>